<?xml version="1.0" standalone="no"?>
<!DOCTYPE svg PUBLIC "-//W3C//DTD SVG 20010904//EN"
 "http://www.w3.org/TR/2001/REC-SVG-20010904/DTD/svg10.dtd">
<svg version="1.0" xmlns="http://www.w3.org/2000/svg"
 width="549.000000pt" height="549.000000pt" viewBox="0 0 549.000000 549.000000"
 preserveAspectRatio="xMidYMid meet">
<metadata>
Created by potrace 1.11, written by Peter Selinger 2001-2013
</metadata>
<g transform="translate(0.000000,549.000000) scale(0.100000,-0.100000)"
fill="#000000" stroke="none">
<path d="M430 3610 l0 -580 288 0 c326 1 333 2 387 78 l30 44 3 410 c3 476 2
488 -72 556 -70 65 -109 72 -393 72 l-243 0 0 -580z m371 360 c18 -10 19 -25
19 -363 0 -261 -3 -356 -12 -365 -7 -7 -25 -12 -40 -12 l-28 0 0 375 c0 372 0
375 21 375 11 0 29 -5 40 -10z"/>
<path d="M1192 3698 l3 -493 23 -44 c26 -47 60 -83 107 -112 27 -17 52 -19
225 -19 217 0 222 1 281 73 59 71 59 74 59 603 l0 484 -155 0 -155 0 0 -477
c0 -263 -4 -484 -9 -491 -4 -8 -19 -12 -32 -10 l-24 3 -5 485 -5 485 -158 3
-158 3 3 -493z"/>
<path d="M1950 3610 l0 -581 138 3 137 3 3 220 4 220 47 -165 c27 -91 56 -191
65 -222 l17 -58 139 0 140 0 0 580 0 580 -130 0 -130 0 -1 -237 -1 -238 -77
235 -77 235 -137 3 -137 3 0 -581z"/>
<path d="M2702 3613 l3 -578 275 -3 c173 -2 289 1 311 8 46 13 104 76 118 127
15 53 15 789 0 848 -16 63 -79 127 -152 154 -53 19 -77 21 -307 21 l-250 0 2
-577z m386 355 c9 -9 12 -103 12 -359 l0 -348 -22 -15 c-12 -9 -30 -16 -40
-16 -16 0 -17 24 -17 375 l0 375 27 0 c16 0 33 -5 40 -12z"/>
<path d="M3480 3610 l0 -580 265 0 265 0 0 115 0 115 -110 0 -111 0 3 123 3
122 93 3 92 3 0 114 0 115 -95 0 -95 0 0 100 0 99 103 3 102 3 3 123 3 122
-261 0 -260 0 0 -580z"/>
<path d="M4040 3610 l0 -580 155 0 155 0 0 260 0 260 29 0 c57 0 61 -18 61
-282 l0 -238 145 0 145 0 0 239 0 239 -32 43 c-18 23 -48 50 -67 60 l-35 18
36 15 c82 34 103 94 96 264 -3 80 -9 106 -31 148 -61 118 -110 134 -424 134
l-233 0 0 -580z m378 358 c17 -17 16 -202 -1 -216 -6 -6 -24 -13 -40 -17 l-27
-7 0 126 0 126 28 0 c15 0 33 -5 40 -12z"/>
<path d="M4514 2977 c-3 -8 -4 -41 -2 -73 l3 -59 258 -3 258 -2 -3 72 -3 73
-253 3 c-207 2 -253 0 -258 -11z"/>
<path d="M430 2400 l0 -580 140 0 140 0 2 317 3 317 43 -299 c24 -165 46 -308
49 -317 4 -16 18 -18 103 -18 93 0 98 1 103 23 3 12 22 150 44 306 l38 284 3
-306 2 -307 135 0 135 0 0 580 0 580 -199 0 -199 0 -6 -37 c-3 -21 -15 -112
-27 -203 -11 -91 -23 -175 -27 -188 -5 -15 -19 58 -41 203 l-34 225 -204 0
-203 0 0 -580z"/>
<path d="M1447 2973 c-10 -9 -9 -1141 1 -1147 4 -2 72 -6 152 -7 l145 -3 3
582 2 582 -148 0 c-82 0 -152 -3 -155 -7z"/>
<path d="M1830 2400 l0 -580 155 0 155 0 0 240 0 240 90 0 90 0 0 115 0 115
-90 0 -90 0 0 105 0 105 105 0 105 0 0 120 0 120 -260 0 -260 0 0 -580z"/>
<path d="M2360 2400 l0 -580 160 0 160 0 0 240 0 240 95 0 96 0 -3 113 -3 112
-92 3 -93 3 0 104 0 105 105 0 105 0 0 120 0 120 -265 0 -265 0 0 -580z"/>
<path d="M2900 2400 l0 -580 250 0 250 0 0 115 0 115 -92 0 -93 0 0 462 0 463
-157 3 -158 3 0 -581z"/>
<path d="M3420 2401 l0 -579 148 -4 c81 -2 150 -2 155 0 4 2 7 264 7 583 l0
579 -155 0 -155 0 0 -579z"/>
<path d="M3800 2400 l0 -580 130 0 130 0 2 237 3 237 69 -236 70 -236 135 -4
c75 -2 139 -2 144 0 4 2 7 264 7 583 l0 579 -135 0 -135 0 -1 -237 0 -238 -55
170 c-30 94 -65 199 -77 235 l-22 65 -132 3 -133 3 0 -581z"/>
<path d="M4517 2824 c-4 -4 -7 -34 -7 -66 l0 -58 88 -1 87 -1 -85 -28 -85 -28
0 -64 0 -63 258 -3 257 -2 0 65 0 65 -92 0 -93 1 93 30 93 30 -3 62 -3 62
-251 3 c-138 1 -253 -1 -257 -4z"/>
<path d="M4574 2471 c-51 -31 -64 -58 -64 -131 0 -112 47 -162 153 -164 l62
-1 0 70 0 70 -58 5 c-31 3 -57 10 -57 15 0 6 65 11 170 13 145 2 170 0 170
-12 0 -12 -16 -16 -72 -18 l-73 -3 0 -70 0 -70 65 0 c112 1 161 43 168 144 5
71 -17 124 -62 152 -27 17 -52 19 -201 19 -150 0 -174 -2 -201 -19z"/>
<path d="M4514 2037 c-2 -7 -3 -60 -2 -118 3 -99 4 -104 26 -107 29 -4 28 -23
-3 -52 -28 -26 -35 -84 -12 -93 24 -9 91 29 134 75 51 56 63 97 63 216 l0 92
-100 0 c-74 0 -102 -3 -106 -13z"/>
<path d="M437 1603 c-4 -3 -7 -62 -7 -130 0 -115 1 -123 19 -123 16 0 20 8 23
42 3 41 4 43 42 49 64 10 96 73 66 129 -15 28 -123 53 -143 33z m103 -62 c13
-25 13 -27 -6 -45 -8 -9 -26 -16 -40 -16 -21 0 -24 4 -24 40 0 38 2 40 30 40
19 0 33 -7 40 -19z"/>
<path d="M814 1602 c-11 -7 -84 -216 -84 -240 0 -26 38 -12 49 18 9 27 14 30
51 30 37 0 42 -3 51 -30 8 -22 17 -30 35 -30 13 0 24 4 24 8 0 13 -67 207 -79
230 -12 23 -28 27 -47 14z m41 -131 c4 -7 -4 -11 -19 -11 -29 0 -31 6 -15 47
l12 28 7 -27 c4 -14 11 -31 15 -37z"/>
<path d="M1107 1603 c-4 -3 -7 -62 -7 -130 0 -115 1 -123 19 -123 16 0 20 8
23 42 3 41 4 43 42 49 64 10 96 73 66 129 -15 28 -123 53 -143 33z m101 -55
c26 -26 -1 -68 -44 -68 -21 0 -24 4 -24 40 0 37 2 40 28 40 15 0 33 -5 40 -12z"/>
<path d="M1437 1603 c-4 -3 -7 -62 -7 -130 l0 -123 78 0 c83 0 94 3 85 26 -3
10 -22 14 -59 14 l-54 0 0 40 0 40 56 0 c47 0 55 3 52 18 -2 13 -15 18 -56 20
-48 3 -52 5 -52 28 0 22 3 24 54 24 55 0 77 15 53 39 -12 12 -139 16 -150 4z"/>
<path d="M1764 1597 c-2 -7 -3 -65 -2 -128 3 -110 4 -114 26 -117 20 -3 22 1
22 42 0 60 16 60 64 1 26 -31 45 -45 62 -45 31 0 31 5 -11 55 l-35 43 22 39
c19 35 20 43 9 71 -8 19 -24 35 -43 41 -43 15 -108 14 -114 -2z m111 -48 c4
-5 4 -21 1 -35 -5 -19 -13 -24 -36 -24 -28 0 -30 3 -30 35 0 32 2 35 29 35 17
0 33 -5 36 -11z"/>
<path d="M2394 1576 c-31 -31 -34 -39 -34 -92 0 -106 59 -159 149 -134 37 10
41 14 41 42 0 30 0 30 -25 14 -73 -48 -145 18 -115 108 14 44 52 60 99 40 43
-18 41 -18 41 11 0 29 -30 45 -87 45 -27 0 -43 -8 -69 -34z"/>
<path d="M2759 1595 c-69 -37 -78 -157 -17 -222 48 -51 146 -33 173 31 54 129
-46 251 -156 191z m106 -58 c20 -28 19 -97 -1 -125 -12 -18 -24 -22 -52 -20
-32 3 -38 8 -51 41 -35 94 51 180 104 104z"/>
<path d="M3107 1603 c-4 -3 -7 -62 -7 -130 0 -116 1 -123 20 -123 18 0 20 7
21 88 l0 87 27 -54 c15 -30 33 -56 40 -59 7 -2 22 18 37 50 l24 53 0 -82 c1
-82 1 -83 26 -83 l26 0 -3 128 -3 127 -25 0 c-21 0 -30 -10 -53 -59 l-28 -59
-29 62 c-20 43 -35 61 -48 61 -10 0 -22 -3 -25 -7z"/>
<path d="M3505 1598 c-3 -8 -4 -66 -3 -129 3 -110 4 -114 26 -117 20 -3 22 1
22 42 0 45 1 46 33 46 74 1 112 80 65 135 -18 20 -35 27 -80 32 -45 4 -59 3
-63 -9z m99 -44 c19 -7 21 -45 4 -62 -7 -7 -22 -12 -35 -12 -20 0 -23 5 -23
40 0 41 13 50 54 34z"/>
<path d="M3886 1601 c-7 -11 -86 -236 -86 -245 0 -3 11 -6 24 -6 17 0 25 8 32
31 5 17 12 30 17 30 4 -1 22 -1 41 -1 29 0 36 -5 45 -30 9 -28 43 -42 54 -22
3 4 -14 61 -37 127 -34 99 -45 121 -63 123 -11 2 -24 -1 -27 -7z m38 -118 c6
-20 4 -23 -17 -23 -24 0 -25 1 -14 35 11 36 17 34 31 -12z"/>
<path d="M4174 1597 c-2 -7 -3 -65 -2 -128 3 -110 4 -114 26 -117 21 -3 22 -1
23 85 l0 88 45 -87 c38 -76 48 -88 69 -88 l26 0 -3 128 c-3 105 -6 127 -18
127 -12 0 -16 -18 -20 -84 l-5 -84 -35 73 c-19 40 -41 79 -48 87 -17 17 -51
17 -58 0z"/>
<path d="M4525 1600 c-3 -5 12 -40 34 -78 34 -56 41 -77 41 -121 0 -49 2 -52
23 -49 19 3 22 10 25 61 2 45 11 71 37 115 37 60 43 82 23 82 -21 0 -33 -12
-60 -58 l-25 -43 -32 50 c-29 49 -53 63 -66 41z"/>
</g>
</svg>
